<?xml version="1.0" encoding="UTF-8"?>
<svg xmlns="http://www.w3.org/2000/svg" width="120" height="120" viewBox="0 0 120 120">
  <defs>
    <linearGradient id="github-gradient" x1="0%" y1="0%" x2="100%" y2="100%">
      <stop offset="0%" stop-color="#6e5494" />
      <stop offset="100%" stop-color="#24292e" />
    </linearGradient>
  </defs>
  
  <!-- Background Circle -->
  <circle cx="60" cy="60" r="55" fill="url(#github-gradient)" />
  
  <!-- GitHub Logo -->
  <path d="M60 30c-16.542 0-30 13.458-30 30 0 13.254 8.592 24.508 20.5 28.463 1.5.28 2.05-.652 2.05-1.442 0-.715-.03-3.091-.04-5.622-8.345 1.813-10.107-3.559-10.107-3.559-1.365-3.467-3.332-4.387-3.332-4.387-2.724-1.864.206-1.823.206-1.823 3.013.211 4.598 3.093 4.598 3.093 2.675 4.584 7.02 3.26 8.738 2.492.27-1.937 1.046-3.258 1.905-4.008-6.663-.759-13.67-3.332-13.67-14.835 0-3.274 1.17-5.95 3.093-8.05-.311-.758-1.338-3.82.29-7.97 0 0 2.522-.806 8.256 3.078 2.393-.663 4.961-.997 7.512-1.008 2.551.011 5.12.345 7.516 1.008 5.73-3.884 8.247-3.078 8.247-3.078 1.632 4.15.607 7.212.294 7.97 1.927 2.1 3.092 4.776 3.092 8.05 0 11.531-7.017 14.065-13.698 14.81 1.08.932 2.04 2.758 2.04 5.558 0 4.01-.034 7.237-.034 8.229 0 .798.54 1.734 2.06 1.439 11.902-3.96 20.488-15.208 20.488-28.46 0-16.542-13.458-30-30-30z" fill="white"/>
  
  <!-- GitHub Label -->
  <g transform="translate(60, 95)" text-anchor="middle">
    <text font-family="Arial, sans-serif" font-size="11" font-weight="bold" fill="white">GITHUB</text>
    <text font-family="Arial, sans-serif" font-size="10" fill="white" y="12">92%</text>
  </g>
  
  <!-- Git Branch and Commits -->
  <g transform="translate(25, 45)" stroke="#ffffff" stroke-width="1.5" fill="none">
    <circle cx="0" cy="0" r="3" fill="#ffffff" stroke="none"/>
    <circle cx="20" cy="0" r="3" fill="#ffffff" stroke="none"/>
    <circle cx="40" cy="0" r="3" fill="#ffffff" stroke="none"/>
    <circle cx="40" cy="-15" r="3" fill="#ffffff" stroke="none"/>
    <line x1="3" y1="0" x2="17" y2="0" />
    <line x1="23" y1="0" x2="37" y2="0" />
    <line x1="40" y1="-3" x2="40" y2="-12" />
  </g>
</svg> 