<svg xmlns="http://www.w3.org/2000/svg" viewBox="0 0 128 128">
  <defs>
    <linearGradient id="hardware-gradient" x1="0%" y1="0%" x2="100%" y2="100%">
      <stop offset="0%" stop-color="#FF6F00"/>
      <stop offset="100%" stop-color="#E65100"/>
    </linearGradient>
    
    <!-- PCB pattern -->
    <pattern id="pcb-pattern" patternUnits="userSpaceOnUse" width="10" height="10">
      <rect width="10" height="10" fill="#01579B"/>
      <path d="M 0,5 H 10 M 5,0 V 10" stroke="#039BE5" stroke-width="0.5" opacity="0.3"/>
    </pattern>
  </defs>

  <!-- Background circle -->
  <circle cx="64" cy="64" r="58" fill="url(#hardware-gradient)" stroke="#E65100" stroke-width="2"/>
  
  <!-- PCB board -->
  <rect x="30" y="40" width="68" height="48" rx="2" fill="url(#pcb-pattern)" stroke="#81D4FA" stroke-width="1"/>
  
  <!-- Circuit components -->
  <g id="circuit-elements">
    <!-- ICs -->
    <rect x="40" y="46" width="16" height="12" rx="1" fill="#0288D1" stroke="#81D4FA" stroke-width="0.8"/>
    <rect x="72" y="46" width="16" height="12" rx="1" fill="#0288D1" stroke="#81D4FA" stroke-width="0.8"/>
    
    <!-- IC pins -->
    <g stroke="#81D4FA" stroke-width="0.5">
      <line x1="42" y1="46" x2="42" y2="43"/>
      <line x1="45" y1="46" x2="45" y2="43"/>
      <line x1="48" y1="46" x2="48" y2="43"/>
      <line x1="51" y1="46" x2="51" y2="43"/>
      <line x1="54" y1="46" x2="54" y2="43"/>
      
      <line x1="42" y1="58" x2="42" y2="61"/>
      <line x1="45" y1="58" x2="45" y2="61"/>
      <line x1="48" y1="58" x2="48" y2="61"/>
      <line x1="51" y1="58" x2="51" y2="61"/>
      <line x1="54" y1="58" x2="54" y2="61"/>
      
      <line x1="74" y1="46" x2="74" y2="43"/>
      <line x1="77" y1="46" x2="77" y2="43"/>
      <line x1="80" y1="46" x2="80" y2="43"/>
      <line x1="83" y1="46" x2="83" y2="43"/>
      <line x1="86" y1="46" x2="86" y2="43"/>
      
      <line x1="74" y1="58" x2="74" y2="61"/>
      <line x1="77" y1="58" x2="77" y2="61"/>
      <line x1="80" y1="58" x2="80" y2="61"/>
      <line x1="83" y1="58" x2="83" y2="61"/>
      <line x1="86" y1="58" x2="86" y2="61"/>
    </g>
    
    <!-- SMD components -->
    <rect x="40" y="66" width="8" height="3.5" rx="0.5" fill="#29B6F6" stroke="#81D4FA" stroke-width="0.5"/>
    <rect x="40" y="72" width="8" height="3.5" rx="0.5" fill="#29B6F6" stroke="#81D4FA" stroke-width="0.5"/>
    <rect x="50" y="66" width="3.5" height="9.5" rx="0.5" fill="#29B6F6" stroke="#81D4FA" stroke-width="0.5"/>
    
    <!-- Capacitors -->
    <rect x="80" y="66" width="4" height="8" rx="0.5" fill="#29B6F6" stroke="#81D4FA" stroke-width="0.5"/>
    <rect x="86" y="66" width="4" height="8" rx="0.5" fill="#29B6F6" stroke="#81D4FA" stroke-width="0.5"/>
    
    <!-- Crystal -->
    <rect x="65" y="73" width="10" height="5" rx="1" fill="#29B6F6" stroke="#81D4FA" stroke-width="0.5"/>
    
    <!-- LED -->
    <circle cx="60" cy="67" r="2.5" fill="#FF5722" stroke="#81D4FA" stroke-width="0.5"/>
  </g>
  
  <!-- Traces -->
  <g id="traces" stroke="#29B6F6" stroke-width="0.8" fill="none" opacity="0.8">
    <path d="M 45,43 L 45,35 L 83,35 L 83,43"/>
    <path d="M 74,61 L 74,80 L 36,80 L 36,61 L 42,61"/>
    <path d="M 54,58 L 54,66 L 60,66"/>
    <path d="M 60,70 L 60,73 L 65,73"/>
    <path d="M 75,73 L 82,73 L 82,66"/>
    <path d="M 86,58 L 86,66"/>
    <path d="M 48,58 L 48,66"/>
  </g>
  
  <!-- Schematic Layer -->
  <g id="schematic" stroke="#B3E5FC" stroke-width="0.7" fill="none" opacity="0.3">
    <!-- Transistor symbol -->
    <path d="M 98,35 L 98,40 L 103,37.5 Z"/>
    <line x1="103" y1="32" x2="103" y2="43"/>
    <line x1="93" y1="37.5" x2="98" y2="37.5"/>
    <line x1="103" y1="37.5" x2="108" y2="37.5"/>
    
    <!-- Op amp symbol -->
    <path d="M 25,35 L 35,30 L 35,40 Z"/>
    <line x1="28" y1="33" x2="28" y2="31"/>
    <line x1="27" y1="32" x2="29" y2="32"/>
    <line x1="28" y1="37" x2="28" y2="39"/>
    <line x1="20" y1="32" x2="25" y2="32"/>
    <line x1="20" y1="38" x2="25" y2="38"/>
    <line x1="35" y1="35" x2="40" y2="35"/>
    
    <!-- Resistor symbol -->
    <path d="M 90,93 L 95,93 L 96,91 L 98,95 L 100,91 L 102,95 L 104,91 L 106,95 L 107,93 L 112,93"/>
    
    <!-- Capacitor symbol -->
    <path d="M 25,93 L 30,93 M 30,90 L 30,96 M 34,90 L 34,96 M 34,93 L 39,93"/>
  </g>
  
  <!-- Tools -->
  <g id="tools">
    <!-- Soldering iron -->
    <path d="M 105,75 L 110,65 L 107,63 L 100,72 Z" fill="#78909C" stroke="#CFD8DC" stroke-width="0.5"/>
    <path d="M 100,72 L 98,74" stroke="#CFD8DC" stroke-width="1"/>
    
    <!-- Multimeter probes -->
    <line x1="23" y1="65" x2="28" y2="75" stroke="#E57373" stroke-width="2" stroke-linecap="round"/>
    <line x1="23" y1="75" x2="28" y2="65" stroke="#64B5F6" stroke-width="2" stroke-linecap="round"/>
  </g>
  
  <!-- Technical drawing elements -->
  <g id="technical" stroke="#B3E5FC" stroke-width="0.3" opacity="0.2">
    <rect x="18" y="18" width="92" height="92" fill="none"/>
    <line x1="18" y1="18" x2="110" y2="110"/>
    <line x1="110" y1="18" x2="18" y2="110"/>
    <circle cx="64" cy="64" r="46" fill="none"/>
    <circle cx="64" cy="64" r="30" fill="none"/>
  </g>
  
  <!-- Label -->
  <text x="64" y="123" font-family="Arial" font-size="8" fill="#FFFFFF" text-anchor="middle" font-weight="bold">Hardware Design</text>
</svg> 