<svg xmlns="http://www.w3.org/2000/svg" viewBox="0 0 128 128">
  <defs>
    <linearGradient id="hardware-gradient" x1="0%" y1="0%" x2="100%" y2="100%">
      <stop offset="0%" stop-color="#263238"/>
      <stop offset="100%" stop-color="#37474F"/>
    </linearGradient>
    
    <pattern id="grid-pattern" width="4" height="4" patternUnits="userSpaceOnUse">
      <rect width="4" height="4" fill="none"/>
      <path d="M 0,2 L 4,2 M 2,0 L 2,4" stroke="#546E7A" stroke-width="0.2" opacity="0.3"/>
    </pattern>
    
    <filter id="glow" x="-20%" y="-20%" width="140%" height="140%">
      <feGaussianBlur stdDeviation="1" result="blur"/>
      <feComposite in="SourceGraphic" in2="blur" operator="over"/>
    </filter>
    
    <linearGradient id="metal-gradient" x1="0%" y1="0%" x2="100%" y2="100%">
      <stop offset="0%" stop-color="#9E9E9E"/>
      <stop offset="50%" stop-color="#BDBDBD"/>
      <stop offset="100%" stop-color="#757575"/>
    </linearGradient>
    
    <linearGradient id="copper-gradient" x1="0%" y1="0%" x2="100%" y2="100%">
      <stop offset="0%" stop-color="#D84315"/>
      <stop offset="50%" stop-color="#FF5722"/>
      <stop offset="100%" stop-color="#BF360C"/>
    </linearGradient>
    
    <linearGradient id="pcb-gradient" x1="0%" y1="0%" x2="100%" y2="100%">
      <stop offset="0%" stop-color="#1B5E20"/>
      <stop offset="100%" stop-color="#388E3C"/>
    </linearGradient>
  </defs>
  
  <!-- Background -->
  <circle cx="64" cy="64" r="58" fill="url(#hardware-gradient)" stroke="#455A64" stroke-width="2"/>
  <circle cx="64" cy="64" r="52" fill="url(#grid-pattern)" stroke="none"/>
  
  <!-- PCB Board -->
  <rect x="30" y="32" width="68" height="64" rx="3" fill="url(#pcb-gradient)" stroke="#1B5E20" stroke-width="1"/>
  
  <!-- PCB Traces -->
  <g stroke="#81C784" stroke-width="0.6" fill="none" opacity="0.7">
    <path d="M 36,40 L 36,85 L 50,85"/>
    <path d="M 36,60 L 55,60 L 55,45 L 65,45 L 65,55 L 80,55 L 80,70"/>
    <path d="M 80,40 L 80,50 L 90,50 L 90,85"/>
    <path d="M 80,70 L 75,70 L 75,85"/>
    <path d="M 55,60 L 55,85"/>
    <path d="M 50,40 L 50,55 L 40,55 L 40,70 L 50,70 L 50,85"/>
    <path d="M 65,40 L 65,45"/>
    <path d="M 65,55 L 65,85"/>
    <circle cx="36" cy="40" r="1.5" fill="#81C784"/>
    <circle cx="50" cy="40" r="1.5" fill="#81C784"/>
    <circle cx="65" cy="40" r="1.5" fill="#81C784"/>
    <circle cx="80" cy="40" r="1.5" fill="#81C784"/>
    <circle cx="36" cy="85" r="1.5" fill="#81C784"/>
    <circle cx="50" cy="85" r="1.5" fill="#81C784"/>
    <circle cx="55" cy="85" r="1.5" fill="#81C784"/>
    <circle cx="65" cy="85" r="1.5" fill="#81C784"/>
    <circle cx="75" cy="85" r="1.5" fill="#81C784"/>
    <circle cx="90" cy="85" r="1.5" fill="#81C784"/>
  </g>
  
  <!-- CPU/Microcontroller -->
  <g>
    <rect x="51" y="54" width="26" height="26" rx="2" fill="#212121" stroke="#000000" stroke-width="0.5"/>
    <circle cx="64" cy="67" r="10" fill="#424242" stroke="#212121" stroke-width="0.5"/>
    <path d="M 51,60 L 48,60 M 51,65 L 48,65 M 51,70 L 48,70 M 51,75 L 48,75 M 77,60 L 80,60 M 77,65 L 80,65 M 77,70 L 80,70 M 77,75 L 80,75 M 55,54 L 55,51 M 60,54 L 60,51 M 65,54 L 65,51 M 70,54 L 70,51 M 55,80 L 55,83 M 60,80 L 60,83 M 65,80 L 65,83 M 70,80 L 70,83" stroke="#757575" stroke-width="1"/>
    <text x="64" y="68.5" font-family="monospace" font-size="5" fill="#E0E0E0" text-anchor="middle">CPU</text>
  </g>
  
  <!-- Capacitors -->
  <g transform="translate(38, 48)">
    <rect x="-2" y="0" width="4" height="10" rx="1" fill="url(#metal-gradient)" stroke="#424242" stroke-width="0.5"/>
    <line x1="-3" y1="2" x2="3" y2="2" stroke="#424242" stroke-width="1"/>
    <line x1="0" y1="10" x2="0" y2="13" stroke="#81C784" stroke-width="0.7"/>
  </g>
  <g transform="translate(45, 48)">
    <rect x="-2" y="0" width="4" height="10" rx="1" fill="url(#metal-gradient)" stroke="#424242" stroke-width="0.5"/>
    <line x1="-3" y1="2" x2="3" y2="2" stroke="#424242" stroke-width="1"/>
    <line x1="0" y1="10" x2="0" y2="13" stroke="#81C784" stroke-width="0.7"/>
  </g>
  
  <!-- Resistors -->
  <g transform="translate(38, 75)">
    <rect x="-7" y="-2" width="14" height="4" rx="1" fill="#FFA000" stroke="#F57C00" stroke-width="0.5"/>
    <rect x="-6" y="-1.5" width="1" height="3" fill="#FFC107"/>
    <rect x="-4" y="-1.5" width="1" height="3" fill="#FFC107"/>
    <rect x="-2" y="-1.5" width="1" height="3" fill="#FFC107"/>
    <rect x="0" y="-1.5" width="1" height="3" fill="#FFC107"/>
    <rect x="2" y="-1.5" width="1" height="3" fill="#FFC107"/>
    <rect x="4" y="-1.5" width="1" height="3" fill="#FFC107"/>
    <line x1="-7" y1="0" x2="-10" y2="0" stroke="#81C784" stroke-width="0.7"/>
    <line x1="7" y1="0" x2="10" y2="0" stroke="#81C784" stroke-width="0.7"/>
  </g>
  
  <!-- IC Chip -->
  <g transform="translate(90, 65)">
    <rect x="-8" y="-12" width="16" height="24" rx="1" fill="#424242" stroke="#212121" stroke-width="0.5"/>
    <circle cx="-4" cy="-8" r="1.2" fill="#616161"/>
    <rect x="-6" y="-10" width="12" height="2" rx="0.5" fill="#9E9E9E" stroke="#757575" stroke-width="0.3"/>
    <rect x="-6" y="8" width="12" height="2" rx="0.5" fill="#9E9E9E" stroke="#757575" stroke-width="0.3"/>
    <line x1="-8" y1="-9" x2="-12" y2="-9" stroke="#81C784" stroke-width="0.7"/>
    <line x1="-8" y1="-6" x2="-12" y2="-6" stroke="#81C784" stroke-width="0.7"/>
    <line x1="-8" y1="-3" x2="-12" y2="-3" stroke="#81C784" stroke-width="0.7"/>
    <line x1="-8" y1="0" x2="-12" y2="0" stroke="#81C784" stroke-width="0.7"/>
    <line x1="-8" y1="3" x2="-12" y2="3" stroke="#81C784" stroke-width="0.7"/>
    <line x1="-8" y1="6" x2="-12" y2="6" stroke="#81C784" stroke-width="0.7"/>
    <line x1="8" y1="-9" x2="12" y2="-9" stroke="#81C784" stroke-width="0.7"/>
    <line x1="8" y1="-6" x2="12" y2="-6" stroke="#81C784" stroke-width="0.7"/>
    <line x1="8" y1="-3" x2="12" y2="-3" stroke="#81C784" stroke-width="0.7"/>
    <line x1="8" y1="0" x2="12" y2="0" stroke="#81C784" stroke-width="0.7"/>
    <line x1="8" y1="3" x2="12" y2="3" stroke="#81C784" stroke-width="0.7"/>
    <line x1="8" y1="6" x2="12" y2="6" stroke="#81C784" stroke-width="0.7"/>
    <text x="0" y="0" font-family="monospace" font-size="4" fill="#E0E0E0" text-anchor="middle">IC</text>
  </g>
  
  <!-- Crystal Oscillator -->
  <g transform="translate(38, 35)">
    <rect x="-4" y="-2" width="8" height="4" rx="1" fill="#B0BEC5" stroke="#90A4AE" stroke-width="0.5"/>
    <line x1="-4" y1="0" x2="-6" y2="0" stroke="#81C784" stroke-width="0.7"/>
    <line x1="4" y1="0" x2="6" y2="0" stroke="#81C784" stroke-width="0.7"/>
    <text x="0" y="1" font-family="monospace" font-size="2.5" fill="#263238" text-anchor="middle">XTAL</text>
  </g>
  
  <!-- LED -->
  <g transform="translate(85, 40)">
    <rect x="-3" y="-3" width="6" height="6" rx="1" fill="#212121" stroke="#000000" stroke-width="0.3"/>
    <circle cx="0" cy="0" r="2" fill="#F44336" stroke="#D32F2F" stroke-width="0.3" filter="url(#glow)">
      <animate attributeName="fill" values="#F44336;#FFCDD2;#F44336" dur="2s" repeatCount="indefinite"/>
    </circle>
    <line x1="-3" y1="0" x2="-5" y2="0" stroke="#81C784" stroke-width="0.7"/>
    <line x1="3" y1="0" x2="5" y2="0" stroke="#81C784" stroke-width="0.7"/>
  </g>
  
  <!-- SMD Components -->
  <g transform="translate(55, 40)">
    <rect x="-5" y="-2" width="10" height="4" rx="1" fill="#9575CD" stroke="#673AB7" stroke-width="0.3"/>
    <line x1="-5" y1="0" x2="-7" y2="0" stroke="#81C784" stroke-width="0.7"/>
    <line x1="5" y1="0" x2="7" y2="0" stroke="#81C784" stroke-width="0.7"/>
  </g>
  <g transform="translate(72, 40)">
    <rect x="-3" y="-2" width="6" height="4" rx="1" fill="#26A69A" stroke="#00897B" stroke-width="0.3"/>
    <line x1="-3" y1="0" x2="-5" y2="0" stroke="#81C784" stroke-width="0.7"/>
    <line x1="3" y1="0" x2="5" y2="0" stroke="#81C784" stroke-width="0.7"/>
  </g>
  
  <!-- USB Connector -->
  <g transform="translate(90, 35)">
    <rect x="-6" y="-5" width="12" height="10" fill="url(#metal-gradient)" stroke="#424242" stroke-width="0.5"/>
    <rect x="-4" y="-3" width="8" height="6" rx="1" fill="#212121" stroke="#000000" stroke-width="0.3"/>
  </g>
  
  <!-- Power Regulator -->
  <g transform="translate(80, 85)">
    <rect x="-6" y="-10" width="12" height="10" rx="1" fill="#795548" stroke="#5D4037" stroke-width="0.5"/>
    <rect x="-2" y="-10" width="4" height="2" fill="#616161" stroke="#424242" stroke-width="0.3"/>
    <line x1="0" y1="-10" x2="0" y2="-12" stroke="#81C784" stroke-width="0.7"/>
    <text x="0" y="-4" font-family="monospace" font-size="3" fill="#FFCCBC" text-anchor="middle">REG</text>
  </g>
  
  <!-- Through-Hole Headers -->
  <g transform="translate(36, 94)">
    <rect x="-1.5" y="-9" width="3" height="9" fill="#212121" stroke="#000000" stroke-width="0.3"/>
    <circle cx="0" cy="-4.5" r="1.2" fill="url(#metal-gradient)" stroke="#424242" stroke-width="0.3"/>
  </g>
  <g transform="translate(41, 94)">
    <rect x="-1.5" y="-9" width="3" height="9" fill="#212121" stroke="#000000" stroke-width="0.3"/>
    <circle cx="0" cy="-4.5" r="1.2" fill="url(#metal-gradient)" stroke="#424242" stroke-width="0.3"/>
  </g>
  <g transform="translate(46, 94)">
    <rect x="-1.5" y="-9" width="3" height="9" fill="#212121" stroke="#000000" stroke-width="0.3"/>
    <circle cx="0" cy="-4.5" r="1.2" fill="url(#metal-gradient)" stroke="#424242" stroke-width="0.3"/>
  </g>
  <g transform="translate(51, 94)">
    <rect x="-1.5" y="-9" width="3" height="9" fill="#212121" stroke="#000000" stroke-width="0.3"/>
    <circle cx="0" cy="-4.5" r="1.2" fill="url(#metal-gradient)" stroke="#424242" stroke-width="0.3"/>
  </g>
  <g transform="translate(56, 94)">
    <rect x="-1.5" y="-9" width="3" height="9" fill="#212121" stroke="#000000" stroke-width="0.3"/>
    <circle cx="0" cy="-4.5" r="1.2" fill="url(#metal-gradient)" stroke="#424242" stroke-width="0.3"/>
  </g>
  <g transform="translate(61, 94)">
    <rect x="-1.5" y="-9" width="3" height="9" fill="#212121" stroke="#000000" stroke-width="0.3"/>
    <circle cx="0" cy="-4.5" r="1.2" fill="url(#metal-gradient)" stroke="#424242" stroke-width="0.3"/>
  </g>
  <g transform="translate(66, 94)">
    <rect x="-1.5" y="-9" width="3" height="9" fill="#212121" stroke="#000000" stroke-width="0.3"/>
    <circle cx="0" cy="-4.5" r="1.2" fill="url(#metal-gradient)" stroke="#424242" stroke-width="0.3"/>
  </g>
  <g transform="translate(71, 94)">
    <rect x="-1.5" y="-9" width="3" height="9" fill="#212121" stroke="#000000" stroke-width="0.3"/>
    <circle cx="0" cy="-4.5" r="1.2" fill="url(#metal-gradient)" stroke="#424242" stroke-width="0.3"/>
  </g>
  
  <!-- Tools/Hardware Elements -->
  <g transform="translate(20, 40) rotate(-30)">
    <rect x="-6" y="-1.5" width="12" height="3" rx="1" fill="url(#metal-gradient)" stroke="#424242" stroke-width="0.3"/>
    <rect x="-9" y="-2.5" width="3" height="5" rx="1" fill="url(#metal-gradient)" stroke="#424242" stroke-width="0.3"/>
    <rect x="6" y="-2.5" width="3" height="5" rx="1" fill="url(#metal-gradient)" stroke="#424242" stroke-width="0.3"/>
  </g>
  
  <g transform="translate(108, 60) rotate(45)">
    <path d="M -8,0 L 8,0 M 0,-4 L 0,4" stroke="url(#metal-gradient)" stroke-width="3" stroke-linecap="round"/>
    <circle cx="0" cy="0" r="2" fill="#616161" stroke="#424242" stroke-width="0.3"/>
  </g>
  
  <!-- Hardware Labels -->
  <g font-family="Arial" font-size="4" fill="#E0E0E0">
    <text x="64" y="30" text-anchor="middle" font-weight="bold">HARDWARE DESIGN</text>
    <text x="38" y="82" text-anchor="middle">R1</text>
    <text x="46" y="35" text-anchor="middle">Ω</text>
    <text x="72" y="35" text-anchor="middle">C1</text>
  </g>
  
  <!-- Technical Indicators -->
  <g font-family="monospace" font-size="2.5" fill="#B3E5FC" opacity="0.8">
    <text x="33" y="102" text-anchor="middle">GND</text>
    <text x="74" y="102" text-anchor="middle">VCC</text>
    <text x="90" y="30" text-anchor="middle">USB</text>
    <text x="38" y="22" text-anchor="middle">16MHz</text>
    <text x="53" y="90" text-anchor="middle">I2C SDA</text>
    <text x="59" y="90" text-anchor="middle">SCL</text>
  </g>
  
  <!-- Circuit Values -->
  <g font-family="Arial" font-size="2.5" fill="#E0E0E0">
    <text x="38" y="78" text-anchor="middle">10kΩ</text>
    <text x="56" y="37" text-anchor="middle">100nF</text>
    <text x="73" y="37" text-anchor="middle">1μF</text>
    <text x="80" y="90" text-anchor="middle">3.3V</text>
  </g>
  
  <!-- Main Label -->
  <text x="64" y="115" font-family="Arial" font-size="6" font-weight="bold" fill="#E0E0E0" text-anchor="middle">HARDWARE</text>
</svg> 