<svg xmlns="http://www.w3.org/2000/svg" viewBox="0 0 128 128">
  <defs>
    <linearGradient id="img-proc-gradient" x1="0%" y1="0%" x2="100%" y2="100%">
      <stop offset="0%" stop-color="#FF5722"/>
      <stop offset="100%" stop-color="#BF360C"/>
    </linearGradient>
  </defs>

  <!-- Background circle -->
  <circle cx="64" cy="64" r="58" fill="url(#img-proc-gradient)" stroke="#BF360C" stroke-width="2"/>

  <!-- Image processing visualization -->
  <g transform="translate(64, 55)">
    <!-- Original image representation -->
    <g transform="translate(-40, 0)">
      <rect x="-15" y="-20" width="30" height="40" fill="#BF360C" stroke="#FFCCBC" stroke-width="1" rx="2"/>
      <text x="0" y="-25" font-family="monospace" font-size="4" fill="#FFFFFF" text-anchor="middle">ORIGINAL</text>
      
      <!-- Sample image content -->
      <circle cx="-5" cy="-10" r="5" fill="#FF8A65"/>
      <rect x="0" y="0" width="10" height="10" fill="#FF8A65"/>
      <polygon points="-10,5 -5,15 -15,15" fill="#FF8A65"/>
    </g>
    
    <!-- Processing arrows -->
    <g transform="translate(0, 0)">
      <path d="M -25,-10 L -5,-10" stroke="#FFFFFF" stroke-width="1.5" marker-end="url(#arrowMarker)"/>
      <path d="M -25,0 L -5,0" stroke="#FFFFFF" stroke-width="1.5" marker-end="url(#arrowMarker)"/>
      <path d="M -25,10 L -5,10" stroke="#FFFFFF" stroke-width="1.5" marker-end="url(#arrowMarker)"/>
      
      <!-- Processing nodes -->
      <g transform="translate(0, -10)">
        <rect x="-3" y="-3" width="6" height="6" fill="#FF8A65" stroke="#FFFFFF"/>
        <text x="0" y="-5" font-family="monospace" font-size="3" fill="#FFFFFF" text-anchor="middle">FILTER</text>
      </g>
      
      <g transform="translate(0, 0)">
        <rect x="-3" y="-3" width="6" height="6" fill="#FF8A65" stroke="#FFFFFF"/>
        <text x="0" y="-5" font-family="monospace" font-size="3" fill="#FFFFFF" text-anchor="middle">EDGE</text>
      </g>
      
      <g transform="translate(0, 10)">
        <rect x="-3" y="-3" width="6" height="6" fill="#FF8A65" stroke="#FFFFFF"/>
        <text x="0" y="-5" font-family="monospace" font-size="3" fill="#FFFFFF" text-anchor="middle">THRESH</text>
      </g>
      
      <path d="M 5,-10 L 25,-10" stroke="#FFFFFF" stroke-width="1.5" marker-end="url(#arrowMarker)"/>
      <path d="M 5,0 L 25,0" stroke="#FFFFFF" stroke-width="1.5" marker-end="url(#arrowMarker)"/>
      <path d="M 5,10 L 25,10" stroke="#FFFFFF" stroke-width="1.5" marker-end="url(#arrowMarker)"/>
    </g>
    
    <!-- Processed images -->
    <g transform="translate(40, -25)">
      <rect x="-10" y="-10" width="20" height="20" fill="#BF360C" stroke="#FFCCBC" stroke-width="1" rx="2"/>
      <text x="0" y="-15" font-family="monospace" font-size="3" fill="#FFFFFF" text-anchor="middle">FILTERED</text>
      
      <!-- Blurred version -->
      <circle cx="-3" cy="-5" r="4" fill="#FF8A65" opacity="0.7" filter="url(#blurFilter)"/>
      <rect x="-1" y="0" width="7" height="7" fill="#FF8A65" opacity="0.7" filter="url(#blurFilter)"/>
      <polygon points="-7,2 -4,8 -10,8" fill="#FF8A65" opacity="0.7" filter="url(#blurFilter)"/>
    </g>
    
    <g transform="translate(40, 0)">
      <rect x="-10" y="-10" width="20" height="20" fill="#BF360C" stroke="#FFCCBC" stroke-width="1" rx="2"/>
      <text x="0" y="-15" font-family="monospace" font-size="3" fill="#FFFFFF" text-anchor="middle">EDGES</text>
      
      <!-- Edge version -->
      <circle cx="-3" cy="-5" r="4" fill="none" stroke="#FFFFFF" stroke-width="0.75"/>
      <rect x="-1" y="0" width="7" height="7" fill="none" stroke="#FFFFFF" stroke-width="0.75"/>
      <polygon points="-7,2 -4,8 -10,8" fill="none" stroke="#FFFFFF" stroke-width="0.75"/>
    </g>
    
    <g transform="translate(40, 25)">
      <rect x="-10" y="-10" width="20" height="20" fill="#BF360C" stroke="#FFCCBC" stroke-width="1" rx="2"/>
      <text x="0" y="-15" font-family="monospace" font-size="3" fill="#FFFFFF" text-anchor="middle">BINARY</text>
      
      <!-- Thresholded version -->
      <circle cx="-3" cy="-5" r="4" fill="#FFFFFF"/>
      <rect x="-1" y="0" width="7" height="7" fill="#FFFFFF"/>
      <polygon points="-7,2 -4,8 -10,8" fill="#FFFFFF"/>
    </g>
  </g>
  
  <!-- Filters -->
  <defs>
    <filter id="blurFilter" x="-50%" y="-50%" width="200%" height="200%">
      <feGaussianBlur in="SourceGraphic" stdDeviation="1" />
    </filter>
    
    <marker id="arrowMarker" viewBox="0 0 10 10" refX="5" refY="5"
            markerWidth="5" markerHeight="5" orient="auto-start-reverse">
      <path d="M 0 0 L 10 5 L 0 10 z" fill="#FFFFFF"/>
    </marker>
  </defs>
  
  <!-- Image processing kernels -->
  <g transform="translate(30, 25)">
    <rect x="-15" y="-10" width="30" height="20" rx="2" fill="#BF360C" stroke="#FFCCBC" stroke-width="0.75"/>
    <text x="0" y="-15" font-family="monospace" font-size="3.5" fill="#FFFFFF" text-anchor="middle">KERNELS</text>
    
    <g font-family="monospace" font-size="3" fill="#FFFFFF" text-anchor="middle">
      <text x="-10" y="-5">-1</text>
      <text x="0" y="-5">0</text>
      <text x="10" y="-5">1</text>
      <text x="-10" y="0">-2</text>
      <text x="0" y="0">0</text>
      <text x="10" y="0">2</text>
      <text x="-10" y="5">-1</text>
      <text x="0" y="5">0</text>
      <text x="10" y="5">1</text>
    </g>
    
    <g stroke="#FFCCBC" stroke-width="0.5" fill="none">
      <line x1="-5" y1="-7" x2="-5" y2="7"/>
      <line x1="5" y1="-7" x2="5" y2="7"/>
      <line x1="-15" y1="-2.5" x2="15" y2="-2.5"/>
      <line x1="-15" y1="2.5" x2="15" y2="2.5"/>
    </g>
  </g>
  
  <!-- Histogram representation -->
  <g transform="translate(95, 25)">
    <rect x="-15" y="-10" width="30" height="20" rx="2" fill="#BF360C" stroke="#FFCCBC" stroke-width="0.75"/>
    <text x="0" y="-15" font-family="monospace" font-size="3.5" fill="#FFFFFF" text-anchor="middle">HISTOGRAM</text>
    
    <g stroke="#FFFFFF" stroke-width="1" fill="#FF8A65">
      <rect x="-13" y="7" width="2" height="-3"/>
      <rect x="-10" y="7" width="2" height="-8"/>
      <rect x="-7" y="7" width="2" height="-12"/>
      <rect x="-4" y="7" width="2" height="-7"/>
      <rect x="-1" y="7" width="2" height="-5"/>
      <rect x="2" y="7" width="2" height="-9"/>
      <rect x="5" y="7" width="2" height="-14"/>
      <rect x="8" y="7" width="2" height="-10"/>
      <rect x="11" y="7" width="2" height="-4"/>
    </g>
  </g>

  <!-- Label -->
  <g transform="translate(64, 115)">
    <rect x="-40" y="-10" width="80" height="20" rx="5" fill="#BF360C" stroke="#FFCCBC" stroke-width="1"/>
    <text x="0" y="0" font-family="Arial" font-size="10" fill="#FFFFFF" text-anchor="middle" font-weight="bold">IMAGE PROCESSING</text>
    <text x="0" y="9" font-family="monospace" font-size="7" fill="#FFCCBC" text-anchor="middle">90%</text>
  </g>
</svg> 