<svg xmlns="http://www.w3.org/2000/svg" viewBox="0 0 128 128">
  <defs>
    <linearGradient id="iot-gradient" x1="0%" y1="0%" x2="100%" y2="100%">
      <stop offset="0%" stop-color="#7E57C2"/>
      <stop offset="100%" stop-color="#4527A0"/>
    </linearGradient>
    
    <pattern id="grid-pattern" width="8" height="8" patternUnits="userSpaceOnUse">
      <rect width="8" height="8" fill="none"/>
      <path d="M 0,4 L 8,4 M 4,0 L 4,8" stroke="#B39DDB" stroke-width="0.2" opacity="0.2"/>
    </pattern>
    
    <filter id="glow" x="-20%" y="-20%" width="140%" height="140%">
      <feGaussianBlur stdDeviation="1" result="blur"/>
      <feComposite in="SourceGraphic" in2="blur" operator="over"/>
    </filter>
    
    <linearGradient id="connection-gradient" x1="0%" y1="0%" x2="100%" y2="0%">
      <stop offset="0%" stop-color="#CE93D8"/>
      <stop offset="50%" stop-color="#9575CD"/>
      <stop offset="100%" stop-color="#7986CB"/>
    </linearGradient>
  </defs>
  
  <!-- Background -->
  <circle cx="64" cy="64" r="58" fill="url(#iot-gradient)" stroke="#4527A0" stroke-width="2"/>
  <circle cx="64" cy="64" r="50" fill="url(#grid-pattern)" stroke="none"/>
  
  <!-- Cloud (representing the Internet) -->
  <g id="cloud">
    <path d="M 42,42 
             C 42,38 46,34 50,34 
             C 52,34 54,35 55,37 
             C 57,33 61,30 66,30 
             C 73,30 79,36 79,42 
             C 79,42 80,42 80,42 
             C 85,42 90,46 90,52 
             C 90,58 85,63 80,63 
             L 50,63 
             C 45,63 40,58 40,52 
             C 40,47 42,42 46,42" 
          fill="#E1F5FE" stroke="#4FC3F7" stroke-width="1"/>
    
    <!-- Cloud Details -->
    <path d="M 46,49 C 48,52 52,53 55,51" fill="none" stroke="#B3E5FC" stroke-width="0.5"/>
    <path d="M 66,45 C 68,46 72,45 73,43" fill="none" stroke="#B3E5FC" stroke-width="0.5"/>
    <path d="M 75,53 C 79,53 79,49 77,47" fill="none" stroke="#B3E5FC" stroke-width="0.5"/>
  </g>
  
  <!-- Connected Devices -->
  <!-- Smart Home -->
  <g id="smart-home" transform="translate(35, 82)">
    <path d="M 0,10 L 15,0 L 30,10 L 30,25 L 0,25 Z" fill="#EEEEEE" stroke="#BDBDBD" stroke-width="1"/>
    <rect x="12" y="15" width="6" height="10" fill="#9575CD" stroke="#7E57C2" stroke-width="0.5"/>
    <rect x="5" y="10" width="5" height="5" fill="#CFD8DC" stroke="#BDBDBD" stroke-width="0.5"/>
    <rect x="20" y="10" width="5" height="5" fill="#CFD8DC" stroke="#BDBDBD" stroke-width="0.5"/>
    <path d="M 10,5 L 12,7 L 18,7 L 20,5" fill="none" stroke="#BDBDBD" stroke-width="0.5"/>
    <circle cx="15" cy="20" r="1" fill="#B39DDB"/>
  </g>
  
  <!-- Smart Watch -->
  <g id="smart-watch" transform="translate(92, 75)">
    <rect x="0" y="0" width="12" height="15" rx="3" fill="#78909C" stroke="#607D8B" stroke-width="1"/>
    <rect x="1" y="2" width="10" height="11" rx="2" fill="#CFD8DC" stroke="#B0BEC5" stroke-width="0.5"/>
    <path d="M 3,5 L 9,5 M 3,7 L 7,7 M 3,9 L 8,9" stroke="#9575CD" stroke-width="0.5"/>
    <path d="M 0,7.5 L -3,7.5 M 12,7.5 L 15,7.5" stroke="#78909C" stroke-width="2" stroke-linecap="round"/>
  </g>
  
  <!-- Smart Thermostat -->
  <g id="thermostat" transform="translate(26, 42)">
    <circle cx="0" cy="0" r="8" fill="#ECEFF1" stroke="#CFD8DC" stroke-width="1"/>
    <circle cx="0" cy="0" r="6" fill="#CFD8DC" stroke="#B0BEC5" stroke-width="0.5"/>
    <circle cx="0" cy="0" r="4" fill="#9FA8DA" stroke="#7986CB" stroke-width="0.5"/>
    <path d="M 0,-3 L 0,0 L 2,2" stroke="#5C6BC0" stroke-width="0.8" stroke-linecap="round"/>
    <circle cx="0" cy="0" r="1" fill="#5C6BC0"/>
  </g>
  
  <!-- Sensor Node -->
  <g id="sensor" transform="translate(98, 40)">
    <rect x="-6" y="-6" width="12" height="12" rx="1" fill="#81C784" stroke="#66BB6A" stroke-width="1"/>
    <circle cx="0" cy="0" r="4" fill="#A5D6A7" stroke="#81C784" stroke-width="0.5"/>
    <circle cx="0" cy="0" r="2" fill="#66BB6A"/>
    <path d="M -4,-4 L -2,-2 M 4,-4 L 2,-2 M -4,4 L -2,2 M 4,4 L 2,2" stroke="#66BB6A" stroke-width="0.5"/>
  </g>
  
  <!-- Smartphone -->
  <g id="smartphone" transform="translate(85, 95)">
    <rect x="0" y="0" width="10" height="16" rx="1" fill="#455A64" stroke="#37474F" stroke-width="1"/>
    <rect x="1" y="2" width="8" height="12" fill="#B2EBF2" stroke="none"/>
    <path d="M 3,4 L 7,4 M 3,6 L 6,6 M 3,8 L 5,8" stroke="#00ACC1" stroke-width="0.5"/>
    <circle cx="5" cy="15" r="0.8" fill="#78909C"/>
  </g>
  
  <!-- Connection Lines -->
  <g id="connections" stroke="url(#connection-gradient)" stroke-width="1" stroke-dasharray="2,1" fill="none">
    <path d="M 64,63 C 60,68 55,75 50,82" filter="url(#glow)"/>
    <path d="M 64,63 C 70,70 80,80 92,85" filter="url(#glow)"/>
    <path d="M 64,63 C 75,65 85,75 90,95" filter="url(#glow)"/>
    <path d="M 64,63 C 50,55 35,50 26,50" filter="url(#glow)"/>
    <path d="M 64,63 C 75,55 90,45 98,46" filter="url(#glow)"/>
  </g>
  
  <!-- Data Flow -->
  <g id="data-flow">
    <g fill="#B39DDB" filter="url(#glow)">
      <circle cx="56" cy="73" r="1"/>
      <circle cx="75" cy="72" r="1"/>
      <circle cx="80" cy="78" r="1"/>
      <circle cx="46" cy="56" r="1"/>
      <circle cx="84" cy="52" r="1"/>
      <animate attributeName="opacity" values="1;0.3;1" dur="3s" repeatCount="indefinite"/>
    </g>
  </g>
  
  <!-- Binary Data Elements -->
  <g id="binary-data" font-family="monospace" font-size="3" fill="#E8EAF6" opacity="0.5">
    <text x="50" y="105">101010</text>
    <text x="64" y="25">010101</text>
    <text x="24" y="62">110011</text>
    <text x="95" y="62">001100</text>
  </g>
  
  <!-- Wireless Signal Indicators -->
  <g id="wireless-signals" stroke="#7E57C2" stroke-width="0.8" fill="none">
    <path d="M 35,60 C 37,58 39,57 41,57" transform="rotate(45, 35, 60)"/>
    <path d="M 35,60 C 38,56 42,55 45,55" transform="rotate(45, 35, 60)"/>
    <path d="M 35,60 C 39,54 44,53 48,53" transform="rotate(45, 35, 60)"/>
    
    <path d="M 90,58 C 88,56 86,55 84,55" transform="rotate(-45, 90, 58)"/>
    <path d="M 90,58 C 87,54 83,53 80,53" transform="rotate(-45, 90, 58)"/>
    <path d="M 90,58 C 85,52 80,51 76,51" transform="rotate(-45, 90, 58)"/>
  </g>
  
  <!-- Technology Labels -->
  <g id="tech-labels" font-family="Arial" font-size="4.5" fill="#E1F5FE" text-anchor="middle">
    <text x="64" y="120">INTERNET OF THINGS</text>
    <text x="25" y="120" font-size="3">SENSORS</text>
    <text x="45" y="120" font-size="3">SMART HOME</text>
    <text x="75" y="120" font-size="3">CONNECTIVITY</text>
    <text x="98" y="120" font-size="3">ANALYTICS</text>
  </g>
  
  <!-- Central IoT Hub -->
  <g id="iot-hub">
    <circle cx="64" cy="76" r="6" fill="#9575CD" stroke="#7E57C2" stroke-width="1"/>
    <circle cx="64" cy="76" r="4" fill="#B39DDB" stroke="#9575CD" stroke-width="0.5"/>
    <circle cx="64" cy="76" r="2" fill="#7E57C2"/>
    <g stroke="#9575CD" stroke-width="0.5" fill="none">
      <path d="M 60,76 L 68,76 M 64,72 L 64,80"/>
    </g>
  </g>
</svg> 