<svg xmlns="http://www.w3.org/2000/svg" viewBox="0 0 128 128">
  <defs>
    <linearGradient id="jetson-gradient" x1="0%" y1="0%" x2="100%" y2="100%">
      <stop offset="0%" stop-color="#76FF03"/>
      <stop offset="100%" stop-color="#33691E"/>
    </linearGradient>
  </defs>

  <!-- Background circle -->
  <circle cx="64" cy="64" r="58" fill="url(#jetson-gradient)" stroke="#33691E" stroke-width="2"/>

  <!-- Jetson board representation -->
  <g transform="translate(64, 64)">
    <!-- Main board -->
    <rect x="-30" y="-25" width="60" height="50" rx="3" fill="#33691E" stroke="#DCEDC8" stroke-width="1.5"/>
    
    <!-- NVIDIA SoC -->
    <g transform="translate(0, -8)">
      <rect x="-15" y="-12" width="30" height="24" rx="2" fill="#558B2F" stroke="#DCEDC8" stroke-width="1"/>
      <text x="0" y="0" font-family="monospace" font-size="5" fill="#DCEDC8" text-anchor="middle">NVIDIA</text>
      <text x="0" y="6" font-family="monospace" font-size="3" fill="#DCEDC8" text-anchor="middle">Tegra</text>
    </g>
    
    <!-- CUDA cores visualization -->
    <g transform="translate(0, -8)">
      <!-- CUDA core grid -->
      <g transform="translate(-10, -6)">
        <rect x="-2" y="-2" width="4" height="4" fill="#AED581" stroke="#33691E" stroke-width="0.5"/>
      </g>
      <g transform="translate(-5, -6)">
        <rect x="-2" y="-2" width="4" height="4" fill="#AED581" stroke="#33691E" stroke-width="0.5"/>
      </g>
      <g transform="translate(0, -6)">
        <rect x="-2" y="-2" width="4" height="4" fill="#AED581" stroke="#33691E" stroke-width="0.5"/>
      </g>
      <g transform="translate(5, -6)">
        <rect x="-2" y="-2" width="4" height="4" fill="#AED581" stroke="#33691E" stroke-width="0.5"/>
      </g>
      <g transform="translate(10, -6)">
        <rect x="-2" y="-2" width="4" height="4" fill="#AED581" stroke="#33691E" stroke-width="0.5"/>
      </g>
      
      <g transform="translate(-10, -1)">
        <rect x="-2" y="-2" width="4" height="4" fill="#AED581" stroke="#33691E" stroke-width="0.5"/>
      </g>
      <g transform="translate(-5, -1)">
        <rect x="-2" y="-2" width="4" height="4" fill="#AED581" stroke="#33691E" stroke-width="0.5"/>
      </g>
      <g transform="translate(0, -1)">
        <rect x="-2" y="-2" width="4" height="4" fill="#AED581" stroke="#33691E" stroke-width="0.5"/>
      </g>
      <g transform="translate(5, -1)">
        <rect x="-2" y="-2" width="4" height="4" fill="#AED581" stroke="#33691E" stroke-width="0.5"/>
      </g>
      <g transform="translate(10, -1)">
        <rect x="-2" y="-2" width="4" height="4" fill="#AED581" stroke="#33691E" stroke-width="0.5"/>
      </g>
      
      <g transform="translate(-10, 4)">
        <rect x="-2" y="-2" width="4" height="4" fill="#AED581" stroke="#33691E" stroke-width="0.5"/>
      </g>
      <g transform="translate(-5, 4)">
        <rect x="-2" y="-2" width="4" height="4" fill="#AED581" stroke="#33691E" stroke-width="0.5"/>
      </g>
      <g transform="translate(0, 4)">
        <rect x="-2" y="-2" width="4" height="4" fill="#AED581" stroke="#33691E" stroke-width="0.5"/>
      </g>
      <g transform="translate(5, 4)">
        <rect x="-2" y="-2" width="4" height="4" fill="#AED581" stroke="#33691E" stroke-width="0.5"/>
      </g>
      <g transform="translate(10, 4)">
        <rect x="-2" y="-2" width="4" height="4" fill="#AED581" stroke="#33691E" stroke-width="0.5"/>
      </g>
    </g>
    
    <!-- RAM modules -->
    <g transform="translate(-20, 12)">
      <rect x="-5" y="-4" width="10" height="8" rx="1" fill="#558B2F" stroke="#DCEDC8" stroke-width="0.5"/>
      <line x1="-4" y1="-4" x2="-4" y2="4" stroke="#DCEDC8" stroke-width="0.5"/>
      <line x1="-2" y1="-4" x2="-2" y2="4" stroke="#DCEDC8" stroke-width="0.5"/>
      <line x1="0" y1="-4" x2="0" y2="4" stroke="#DCEDC8" stroke-width="0.5"/>
      <line x1="2" y1="-4" x2="2" y2="4" stroke="#DCEDC8" stroke-width="0.5"/>
      <line x1="4" y1="-4" x2="4" y2="4" stroke="#DCEDC8" stroke-width="0.5"/>
      <text x="0" y="-6" font-family="monospace" font-size="2.5" fill="#DCEDC8" text-anchor="middle">RAM</text>
    </g>
    
    <g transform="translate(20, 12)">
      <rect x="-5" y="-4" width="10" height="8" rx="1" fill="#558B2F" stroke="#DCEDC8" stroke-width="0.5"/>
      <line x1="-4" y1="-4" x2="-4" y2="4" stroke="#DCEDC8" stroke-width="0.5"/>
      <line x1="-2" y1="-4" x2="-2" y2="4" stroke="#DCEDC8" stroke-width="0.5"/>
      <line x1="0" y1="-4" x2="0" y2="4" stroke="#DCEDC8" stroke-width="0.5"/>
      <line x1="2" y1="-4" x2="2" y2="4" stroke="#DCEDC8" stroke-width="0.5"/>
      <line x1="4" y1="-4" x2="4" y2="4" stroke="#DCEDC8" stroke-width="0.5"/>
      <text x="0" y="-6" font-family="monospace" font-size="2.5" fill="#DCEDC8" text-anchor="middle">RAM</text>
    </g>
    
    <!-- IO ports -->
    <g transform="translate(0, 22)">
      <!-- USB ports -->
      <rect x="-24" y="-3" width="8" height="6" rx="1" fill="#DCEDC8" stroke="#33691E" stroke-width="0.5"/>
      <rect x="-14" y="-3" width="8" height="6" rx="1" fill="#DCEDC8" stroke="#33691E" stroke-width="0.5"/>
      
      <!-- Ethernet port -->
      <rect x="-2" y="-3" width="10" height="6" rx="1" fill="#DCEDC8" stroke="#33691E" stroke-width="0.5"/>
      <line x1="-1" y1="-3" x2="-1" y2="3" stroke="#33691E" stroke-width="0.3"/>
      <line x1="0" y1="-3" x2="0" y2="3" stroke="#33691E" stroke-width="0.3"/>
      <line x1="1" y1="-3" x2="1" y2="3" stroke="#33691E" stroke-width="0.3"/>
      <line x1="2" y1="-3" x2="2" y2="3" stroke="#33691E" stroke-width="0.3"/>
      <line x1="3" y1="-3" x2="3" y2="3" stroke="#33691E" stroke-width="0.3"/>
      <line x1="4" y1="-3" x2="4" y2="3" stroke="#33691E" stroke-width="0.3"/>
      <line x1="5" y1="-3" x2="5" y2="3" stroke="#33691E" stroke-width="0.3"/>
      <line x1="6" y1="-3" x2="6" y2="3" stroke="#33691E" stroke-width="0.3"/>
      
      <!-- HDMI port -->
      <rect x="12" y="-3" width="12" height="6" rx="1" fill="#DCEDC8" stroke="#33691E" stroke-width="0.5"/>
      <text x="18" y="0.5" font-family="monospace" font-size="2" fill="#33691E" text-anchor="middle">HDMI</text>
    </g>
    
    <!-- GPIO pins -->
    <g transform="translate(0, -22)">
      <rect x="-15" y="-3" width="30" height="6" fill="#558B2F" stroke="#DCEDC8" stroke-width="0.5"/>
      <g fill="#DCEDC8">
        <circle cx="-14" cy="0" r="0.75"/>
        <circle cx="-12" cy="0" r="0.75"/>
        <circle cx="-10" cy="0" r="0.75"/>
        <circle cx="-8" cy="0" r="0.75"/>
        <circle cx="-6" cy="0" r="0.75"/>
        <circle cx="-4" cy="0" r="0.75"/>
        <circle cx="-2" cy="0" r="0.75"/>
        <circle cx="0" cy="0" r="0.75"/>
        <circle cx="2" cy="0" r="0.75"/>
        <circle cx="4" cy="0" r="0.75"/>
        <circle cx="6" cy="0" r="0.75"/>
        <circle cx="8" cy="0" r="0.75"/>
        <circle cx="10" cy="0" r="0.75"/>
        <circle cx="12" cy="0" r="0.75"/>
        <circle cx="14" cy="0" r="0.75"/>
      </g>
      <text x="0" y="-5" font-family="monospace" font-size="2.5" fill="#DCEDC8" text-anchor="middle">GPIO</text>
    </g>
    
    <!-- Cooling fan -->
    <g transform="translate(20, -8)">
      <circle cx="0" cy="0" r="5" fill="#558B2F" stroke="#DCEDC8" stroke-width="0.5"/>
      <path d="M 0,0 L 3.5,3.5 M 0,0 L -3.5,3.5 M 0,0 L -3.5,-3.5 M 0,0 L 3.5,-3.5" stroke="#DCEDC8" stroke-width="0.75"/>
      <circle cx="0" cy="0" r="1.5" fill="#33691E" stroke="#DCEDC8" stroke-width="0.5"/>
    </g>
  </g>
  
  <!-- AI/ML Performance visualization -->
  <g transform="translate(35, 30)">
    <rect x="-12" y="-12" width="24" height="24" rx="2" fill="#558B2F" stroke="#DCEDC8" stroke-width="0.75"/>
    <text x="0" y="-16" font-family="monospace" font-size="3.5" fill="#DCEDC8" text-anchor="middle">AI PERFORMANCE</text>
    
    <!-- Neural network -->
    <g transform="translate(0, 0) scale(0.8)">
      <!-- Input layer -->
      <circle cx="-10" cy="-8" r="2" fill="#8BC34A"/>
      <circle cx="-10" cy="0" r="2" fill="#8BC34A"/>
      <circle cx="-10" cy="8" r="2" fill="#8BC34A"/>
      
      <!-- Hidden layer -->
      <circle cx="0" cy="-8" r="2" fill="#8BC34A"/>
      <circle cx="0" cy="-4" r="2" fill="#8BC34A"/>
      <circle cx="0" cy="0" r="2" fill="#8BC34A"/>
      <circle cx="0" cy="4" r="2" fill="#8BC34A"/>
      <circle cx="0" cy="8" r="2" fill="#8BC34A"/>
      
      <!-- Output layer -->
      <circle cx="10" cy="-5" r="2" fill="#8BC34A"/>
      <circle cx="10" cy="5" r="2" fill="#8BC34A"/>
      
      <!-- Connections -->
      <g stroke="#DCEDC8" stroke-width="0.3">
        <!-- Input to hidden -->
        <line x1="-8" y1="-8" x2="-2" y2="-8"/>
        <line x1="-8" y1="-8" x2="-2" y2="-4"/>
        <line x1="-8" y1="-8" x2="-2" y2="0"/>
        <line x1="-8" y1="-8" x2="-2" y2="4"/>
        <line x1="-8" y1="-8" x2="-2" y2="8"/>
        
        <line x1="-8" y1="0" x2="-2" y2="-8"/>
        <line x1="-8" y1="0" x2="-2" y2="-4"/>
        <line x1="-8" y1="0" x2="-2" y2="0"/>
        <line x1="-8" y1="0" x2="-2" y2="4"/>
        <line x1="-8" y1="0" x2="-2" y2="8"/>
        
        <line x1="-8" y1="8" x2="-2" y2="-8"/>
        <line x1="-8" y1="8" x2="-2" y2="-4"/>
        <line x1="-8" y1="8" x2="-2" y2="0"/>
        <line x1="-8" y1="8" x2="-2" y2="4"/>
        <line x1="-8" y1="8" x2="-2" y2="8"/>
        
        <!-- Hidden to output -->
        <line x1="2" y1="-8" x2="8" y2="-5"/>
        <line x1="2" y1="-4" x2="8" y2="-5"/>
        <line x1="2" y1="0" x2="8" y2="-5"/>
        <line x1="2" y1="4" x2="8" y2="-5"/>
        <line x1="2" y1="8" x2="8" y2="-5"/>
        
        <line x1="2" y1="-8" x2="8" y2="5"/>
        <line x1="2" y1="-4" x2="8" y2="5"/>
        <line x1="2" y1="0" x2="8" y2="5"/>
        <line x1="2" y1="4" x2="8" y2="5"/>
        <line x1="2" y1="8" x2="8" y2="5"/>
      </g>
    </g>
  </g>
  
  <!-- CUDA Core visualization -->
  <g transform="translate(95, 30)">
    <rect x="-12" y="-12" width="24" height="24" rx="2" fill="#558B2F" stroke="#DCEDC8" stroke-width="0.75"/>
    <text x="0" y="-16" font-family="monospace" font-size="3.5" fill="#DCEDC8" text-anchor="middle">CUDA CORES</text>
    
    <g transform="translate(0, 0)">
      <!-- Core grid -->
      <g transform="translate(-6, -6)">
        <rect x="-2" y="-2" width="4" height="4" fill="#8BC34A" stroke="#33691E" stroke-width="0.5" rx="1"/>
      </g>
      <g transform="translate(-6, 0)">
        <rect x="-2" y="-2" width="4" height="4" fill="#8BC34A" stroke="#33691E" stroke-width="0.5" rx="1"/>
      </g>
      <g transform="translate(-6, 6)">
        <rect x="-2" y="-2" width="4" height="4" fill="#8BC34A" stroke="#33691E" stroke-width="0.5" rx="1"/>
      </g>
      
      <g transform="translate(0, -6)">
        <rect x="-2" y="-2" width="4" height="4" fill="#8BC34A" stroke="#33691E" stroke-width="0.5" rx="1"/>
      </g>
      <g transform="translate(0, 0)">
        <rect x="-2" y="-2" width="4" height="4" fill="#8BC34A" stroke="#33691E" stroke-width="0.5" rx="1"/>
      </g>
      <g transform="translate(0, 6)">
        <rect x="-2" y="-2" width="4" height="4" fill="#8BC34A" stroke="#33691E" stroke-width="0.5" rx="1"/>
      </g>
      
      <g transform="translate(6, -6)">
        <rect x="-2" y="-2" width="4" height="4" fill="#8BC34A" stroke="#33691E" stroke-width="0.5" rx="1"/>
      </g>
      <g transform="translate(6, 0)">
        <rect x="-2" y="-2" width="4" height="4" fill="#8BC34A" stroke="#33691E" stroke-width="0.5" rx="1"/>
      </g>
      <g transform="translate(6, 6)">
        <rect x="-2" y="-2" width="4" height="4" fill="#8BC34A" stroke="#33691E" stroke-width="0.5" rx="1"/>
      </g>
      
      <!-- Processing flows -->
      <g stroke="#DCEDC8" stroke-width="0.5" stroke-dasharray="1,0.5">
        <path d="M -6,-6 L 0,-6 L 6,-6"/>
        <path d="M -6,0 L 0,0 L 6,0"/>
        <path d="M -6,6 L 0,6 L 6,6"/>
        
        <path d="M -6,-6 L -6,0 L -6,6"/>
        <path d="M 0,-6 L 0,0 L 0,6"/>
        <path d="M 6,-6 L 6,0 L 6,6"/>
      </g>
    </g>
  </g>
  
  <!-- Technical specs -->
  <g transform="translate(64, 95)">
    <rect x="-42" y="-10" width="84" height="20" rx="3" fill="#558B2F" stroke="#DCEDC8" stroke-width="0.75"/>
    <g font-family="monospace" font-size="3.5" fill="#DCEDC8" text-anchor="middle">
      <text x="-30" y="-3">CUDA</text>
      <text x="-30" y="4">128 CORES</text>
      
      <text x="-10" y="-3">GPU</text>
      <text x="-10" y="4">MAX-P</text>
      
      <text x="10" y="-3">MEMORY</text>
      <text x="10" y="4">4GB LPDDR4</text>
      
      <text x="30" y="-3">AI</text>
      <text x="30" y="4">32 TOPS</text>
    </g>
  </g>

  <!-- Label -->
  <g transform="translate(64, 115)">
    <rect x="-30" y="-8" width="60" height="16" rx="5" fill="#33691E" stroke="#DCEDC8" stroke-width="1"/>
    <text x="0" y="0" font-family="Arial" font-size="10" fill="#FFFFFF" text-anchor="middle" font-weight="bold">JETSON</text>
    <text x="0" y="8" font-family="monospace" font-size="5" fill="#DCEDC8" text-anchor="middle">88%</text>
  </g>
</svg> 