<?xml version="1.0" encoding="UTF-8"?>
<svg xmlns="http://www.w3.org/2000/svg" viewBox="0 0 128 128">
  <defs>
    <linearGradient id="jetson-gradient" x1="0%" y1="0%" x2="100%" y2="100%">
      <stop offset="0%" stop-color="#76B900"/>
      <stop offset="100%" stop-color="#1A5200"/>
    </linearGradient>
  </defs>
  
  <!-- Background circle -->
  <circle cx="64" cy="64" r="58" fill="url(#jetson-gradient)" stroke="#1A5200" stroke-width="2"/>
  
  <!-- Jetson Orin Nano module representation -->
  <g transform="translate(64, 50)">
    <!-- Main board outline -->
    <rect x="-28" y="-18" width="56" height="36" rx="3" fill="#333333" stroke="#76B900" stroke-width="1.5"/>
    
    <!-- NVIDIA logo -->
    <g transform="translate(-22, -12)">
      <rect x="-4" y="-4" width="8" height="8" rx="1" fill="#76B900"/>
      <text x="0" y="0" font-family="Arial" font-size="5" fill="#FFFFFF" font-weight="bold" text-anchor="middle">NV</text>
    </g>
    
    <!-- Components on board -->
    <g>
      <!-- Main processor (Orin) -->
      <rect x="-12" y="-10" width="24" height="20" rx="2" fill="#111111" stroke="#76B900" stroke-width="0.75"/>
      <text x="0" y="-6" font-family="monospace" font-size="3" fill="#FFFFFF" text-anchor="middle">NVIDIA ORIN</text>
      <text x="0" y="-2" font-family="monospace" font-size="3" fill="#FFFFFF" text-anchor="middle">Ampere GPU</text>
      <text x="0" y="2" font-family="monospace" font-size="3" fill="#FFFFFF" text-anchor="middle">1024 CUDA</text>
      <text x="0" y="6" font-family="monospace" font-size="3" fill="#FFFFFF" text-anchor="middle">ARM Cortex</text>
      <text x="0" y="10" font-family="monospace" font-size="3" fill="#FFFFFF" text-anchor="middle">40 TOPS AI</text>
      
      <!-- Memory -->
      <g transform="translate(20, -8)">
        <rect x="-5" y="-6" width="10" height="12" rx="1" fill="#111111" stroke="#76B900" stroke-width="0.5"/>
        <text x="0" y="-2" font-family="monospace" font-size="2.5" fill="#FFFFFF" text-anchor="middle">LPDDR5</text>
        <text x="0" y="2" font-family="monospace" font-size="2.5" fill="#FFFFFF" text-anchor="middle">8GB</text>
      </g>
    </g>
    
    <!-- Connectors -->
    <g transform="translate(0, 12)">
      <!-- USB/HDMI -->
      <g transform="translate(-20, 0)">
        <rect x="-5" y="-2" width="10" height="4" rx="1" fill="#111111" stroke="#76B900" stroke-width="0.5"/>
        <text x="0" y="1" font-family="monospace" font-size="2" fill="#FFFFFF" text-anchor="middle">I/O</text>
      </g>
      
      <!-- Power -->
      <g transform="translate(20, 0)">
        <rect x="-5" y="-2" width="10" height="4" rx="1" fill="#111111" stroke="#76B900" stroke-width="0.5"/>
        <text x="0" y="1" font-family="monospace" font-size="2" fill="#FFFFFF" text-anchor="middle">PWR</text>
      </g>
      
      <!-- Pin headers -->
      <g transform="translate(0, 0)">
        <rect x="-10" y="-2" width="20" height="4" rx="1" fill="#111111" stroke="#76B900" stroke-width="0.5"/>
        <text x="0" y="1" font-family="monospace" font-size="2" fill="#FFFFFF" text-anchor="middle">GPIO</text>
      </g>
    </g>
    
    <!-- Heatsink -->
    <g transform="translate(0, -20)">
      <rect x="-24" y="-6" width="48" height="4" rx="1" fill="#555555" stroke="#76B900" stroke-width="0.5"/>
      
      <!-- Fins -->
      <g stroke="#76B900" stroke-width="0.5" fill="#444444">
        <rect x="-22" y="-10" width="2" height="4"/>
        <rect x="-18" y="-10" width="2" height="4"/>
        <rect x="-14" y="-10" width="2" height="4"/>
        <rect x="-10" y="-10" width="2" height="4"/>
        <rect x="-6" y="-10" width="2" height="4"/>
        <rect x="-2" y="-10" width="2" height="4"/>
        <rect x="2" y="-10" width="2" height="4"/>
        <rect x="6" y="-10" width="2" height="4"/>
        <rect x="10" y="-10" width="2" height="4"/>
        <rect x="14" y="-10" width="2" height="4"/>
        <rect x="18" y="-10" width="2" height="4"/>
      </g>
    </g>
  </g>
  
  <!-- AI Features -->
  <g transform="translate(35, 90)">
    <rect x="-20" y="-10" width="40" height="20" rx="5" fill="#1A5200" stroke="#76B900" stroke-width="1"/>
    
    <g font-family="monospace" font-size="3" fill="#FFFFFF" text-anchor="middle">
      <text x="0" y="-5">DEEP LEARNING</text>
      <text x="0" y="0">COMPUTER VISION</text>
      <text x="0" y="5">TENSOR CORES</text>
    </g>
  </g>
  
  <!-- Performance -->
  <g transform="translate(93, 90)">
    <rect x="-20" y="-10" width="40" height="20" rx="5" fill="#1A5200" stroke="#76B900" stroke-width="1"/>
    
    <g font-family="monospace" font-size="3" fill="#FFFFFF" text-anchor="middle">
      <text x="0" y="-5">40 TOPS AI</text>
      <text x="0" y="0">1024 CUDA CORES</text>
      <text x="0" y="5">15W POWER</text>
    </g>
  </g>
  
  <!-- Neural network visualization -->
  <g transform="translate(64, 25)">
    <!-- Network architecture -->
    <g>
      <!-- Nodes -->
      <g fill="#FFFFFF" stroke="#1A5200" stroke-width="0.5">
        <!-- Input layer -->
        <circle cx="-20" cy="-5" r="2"/>
        <circle cx="-20" cy="0" r="2"/>
        <circle cx="-20" cy="5" r="2"/>
        
        <!-- Hidden layer 1 -->
        <circle cx="-10" cy="-8" r="2"/>
        <circle cx="-10" cy="-4" r="2"/>
        <circle cx="-10" cy="0" r="2"/>
        <circle cx="-10" cy="4" r="2"/>
        <circle cx="-10" cy="8" r="2"/>
        
        <!-- Hidden layer 2 -->
        <circle cx="0" cy="-10" r="2"/>
        <circle cx="0" cy="-5" r="2"/>
        <circle cx="0" cy="0" r="2"/>
        <circle cx="0" cy="5" r="2"/>
        <circle cx="0" cy="10" r="2"/>
        
        <!-- Hidden layer 3 -->
        <circle cx="10" cy="-8" r="2"/>
        <circle cx="10" cy="-4" r="2"/>
        <circle cx="10" cy="0" r="2"/>
        <circle cx="10" cy="4" r="2"/>
        <circle cx="10" cy="8" r="2"/>
        
        <!-- Output layer -->
        <circle cx="20" cy="-4" r="2"/>
        <circle cx="20" cy="0" r="2"/>
        <circle cx="20" cy="4" r="2"/>
      </g>
      
      <!-- Connections (simplified to reduce visual clutter) -->
      <g stroke="#76B900" stroke-width="0.3">
        <!-- Input to first hidden -->
        <line x1="-20" y1="-5" x2="-10" y2="-8"/>
        <line x1="-20" y1="-5" x2="-10" y2="-4"/>
        <line x1="-20" y1="0" x2="-10" y2="-4"/>
        <line x1="-20" y1="0" x2="-10" y2="0"/>
        <line x1="-20" y1="0" x2="-10" y2="4"/>
        <line x1="-20" y1="5" x2="-10" y2="4"/>
        <line x1="-20" y1="5" x2="-10" y2="8"/>
        
        <!-- Hidden 1 to hidden 2 -->
        <line x1="-10" y1="-8" x2="0" y2="-10"/>
        <line x1="-10" y1="-8" x2="0" y2="-5"/>
        <line x1="-10" y1="-4" x2="0" y2="-5"/>
        <line x1="-10" y1="-4" x2="0" y2="0"/>
        <line x1="-10" y1="0" x2="0" y2="0"/>
        <line x1="-10" y1="4" x2="0" y2="0"/>
        <line x1="-10" y1="4" x2="0" y2="5"/>
        <line x1="-10" y1="8" x2="0" y2="5"/>
        <line x1="-10" y1="8" x2="0" y2="10"/>
        
        <!-- Hidden 2 to hidden 3 -->
        <line x1="0" y1="-10" x2="10" y2="-8"/>
        <line x1="0" y1="-5" x2="10" y2="-8"/>
        <line x1="0" y1="-5" x2="10" y2="-4"/>
        <line x1="0" y1="0" x2="10" y2="-4"/>
        <line x1="0" y1="0" x2="10" y2="0"/>
        <line x1="0" y1="0" x2="10" y2="4"/>
        <line x1="0" y1="5" x2="10" y2="4"/>
        <line x1="0" y1="5" x2="10" y2="8"/>
        <line x1="0" y1="10" x2="10" y2="8"/>
        
        <!-- Hidden 3 to output -->
        <line x1="10" y1="-8" x2="20" y2="-4"/>
        <line x1="10" y1="-4" x2="20" y2="-4"/>
        <line x1="10" y1="-4" x2="20" y2="0"/>
        <line x1="10" y1="0" x2="20" y2="-4"/>
        <line x1="10" y1="0" x2="20" y2="0"/>
        <line x1="10" y1="0" x2="20" y2="4"/>
        <line x1="10" y1="4" x2="20" y2="0"/>
        <line x1="10" y1="4" x2="20" y2="4"/>
        <line x1="10" y1="8" x2="20" y2="4"/>
      </g>
    </g>
  </g>
  
  <!-- Technical specs -->
  <g transform="translate(64, 110)">
    <rect x="-45" y="-8" width="90" height="16" rx="3" fill="#1A5200" stroke="#76B900" stroke-width="0.75"/>
    <g font-family="monospace" font-size="3" fill="#FFFFFF" text-anchor="middle">
      <text x="-30" y="0">8-CORE ARM v8.2</text>
      <text x="-5" y="0">8GB RAM</text>
      <text x="20" y="0">1024 CUDA</text>
      <text x="40" y="0">32 TensorCores</text>
    </g>
  </g>

  <!-- Label -->
  <g transform="translate(64, 125)">
    <rect x="-40" y="-9" width="80" height="18" rx="5" fill="#1A5200" stroke="#76B900" stroke-width="1"/>
    <text x="0" y="0" font-family="Arial" font-size="10" fill="#FFFFFF" text-anchor="middle" font-weight="bold">JETSON ORIN NANO</text>
    <text x="0" y="9" font-family="monospace" font-size="6" fill="#FFFFFF" text-anchor="middle">88%</text>
  </g>
</svg> 