<svg xmlns="http://www.w3.org/2000/svg" viewBox="0 0 128 128">
  <defs>
    <linearGradient id="robotics-gradient" x1="0%" y1="0%" x2="100%" y2="100%">
      <stop offset="0%" stop-color="#212121"/>
      <stop offset="100%" stop-color="#424242"/>
    </linearGradient>
    
    <filter id="glow" x="-20%" y="-20%" width="140%" height="140%">
      <feGaussianBlur stdDeviation="1.5" result="blur"/>
      <feComposite in="SourceGraphic" in2="blur" operator="over"/>
    </filter>
    
    <pattern id="circuit-pattern" width="10" height="10" patternUnits="userSpaceOnUse">
      <rect width="10" height="10" fill="none"/>
      <path d="M 0,5 L 10,5 M 5,0 L 5,10" stroke="#03A9F4" stroke-width="0.3" opacity="0.3"/>
    </pattern>
    
    <linearGradient id="metal-gradient" x1="0%" y1="0%" x2="100%" y2="100%">
      <stop offset="0%" stop-color="#9E9E9E"/>
      <stop offset="50%" stop-color="#BDBDBD"/>
      <stop offset="100%" stop-color="#757575"/>
    </linearGradient>
  </defs>
  
  <!-- Background -->
  <circle cx="64" cy="64" r="58" fill="url(#robotics-gradient)" stroke="#616161" stroke-width="2"/>
  <circle cx="64" cy="64" r="52" fill="url(#circuit-pattern)" stroke="none"/>
  
  <!-- Robot Head -->
  <rect x="44" y="25" width="40" height="30" rx="4" fill="url(#metal-gradient)" stroke="#424242" stroke-width="1"/>
  
  <!-- Robot Eyes -->
  <circle cx="54" cy="38" r="6" fill="#03A9F4" stroke="#0288D1" stroke-width="0.5" filter="url(#glow)">
    <animate attributeName="fill" values="#03A9F4;#B3E5FC;#03A9F4" dur="3s" repeatCount="indefinite"/>
  </circle>
  <circle cx="74" cy="38" r="6" fill="#03A9F4" stroke="#0288D1" stroke-width="0.5" filter="url(#glow)">
    <animate attributeName="fill" values="#03A9F4;#B3E5FC;#03A9F4" dur="3s" repeatCount="indefinite"/>
  </circle>
  
  <!-- Robot Mouth -->
  <rect x="54" y="48" width="20" height="3" rx="1" fill="#37474F"/>
  <rect x="54" y="48" width="20" height="1" rx="0.5" fill="#78909C"/>
  
  <!-- Antenna -->
  <line x1="64" y1="25" x2="64" y2="18" stroke="#9E9E9E" stroke-width="2"/>
  <circle cx="64" cy="16" r="3" fill="#F44336" stroke="#D32F2F" stroke-width="0.5">
    <animate attributeName="fill" values="#F44336;#FFCDD2;#F44336" dur="2s" repeatCount="indefinite"/>
  </circle>
  
  <!-- Robot Body -->
  <rect x="39" y="55" width="50" height="40" rx="3" fill="url(#metal-gradient)" stroke="#424242" stroke-width="1"/>
  
  <!-- Control Panel -->
  <rect x="47" y="60" width="34" height="15" rx="2" fill="#263238" stroke="#455A64" stroke-width="0.5"/>
  
  <!-- Control Buttons and Lights -->
  <circle cx="52" cy="65" r="2" fill="#F44336" stroke="#D32F2F" stroke-width="0.3"/>
  <circle cx="58" cy="65" r="2" fill="#4CAF50" stroke="#388E3C" stroke-width="0.3"/>
  <circle cx="64" cy="65" r="2" fill="#FFC107" stroke="#FFA000" stroke-width="0.3"/>
  <circle cx="70" cy="65" r="2" fill="#2196F3" stroke="#1976D2" stroke-width="0.3"/>
  <circle cx="76" cy="65" r="2" fill="#9C27B0" stroke="#7B1FA2" stroke-width="0.3"/>
  
  <!-- Display -->
  <rect x="50" y="70" width="28" height="5" rx="1" fill="#E0F7FA" stroke="#B2EBF2" stroke-width="0.3"/>
  <text x="64" y="74" font-family="monospace" font-size="3" fill="#006064" text-anchor="middle">ONLINE</text>
  
  <!-- Arms Connectors -->
  <circle cx="39" cy="65" r="3" fill="#616161" stroke="#424242" stroke-width="0.5"/>
  <circle cx="89" cy="65" r="3" fill="#616161" stroke="#424242" stroke-width="0.5"/>
  
  <!-- Arms -->
  <path d="M 36,65 C 28,65 24,75 20,85" stroke="url(#metal-gradient)" stroke-width="3" fill="none"/>
  <path d="M 92,65 C 100,65 104,75 108,85" stroke="url(#metal-gradient)" stroke-width="3" fill="none"/>
  
  <!-- Hands/Grippers -->
  <g transform="translate(20, 85)">
    <path d="M -3,0 L 3,0 M 0,-3 L 0,3" stroke="#9E9E9E" stroke-width="2" stroke-linecap="round"/>
    <path d="M -3,-3 L -6,-6 M 3,-3 L 6,-6 M -3,3 L -6,6 M 3,3 L 6,6" stroke="#9E9E9E" stroke-width="1.5" stroke-linecap="round"/>
  </g>
  <g transform="translate(108, 85)">
    <path d="M -3,0 L 3,0 M 0,-3 L 0,3" stroke="#9E9E9E" stroke-width="2" stroke-linecap="round"/>
    <path d="M -3,-3 L -6,-6 M 3,-3 L 6,-6 M -3,3 L -6,6 M 3,3 L 6,6" stroke="#9E9E9E" stroke-width="1.5" stroke-linecap="round"/>
  </g>
  
  <!-- Legs Connectors -->
  <rect x="49" y="95" width="8" height="5" fill="#616161" stroke="#424242" stroke-width="0.5"/>
  <rect x="71" y="95" width="8" height="5" fill="#616161" stroke="#424242" stroke-width="0.5"/>
  
  <!-- Legs -->
  <rect x="49" y="100" width="8" height="15" rx="2" fill="url(#metal-gradient)" stroke="#424242" stroke-width="0.5"/>
  <rect x="71" y="100" width="8" height="15" rx="2" fill="url(#metal-gradient)" stroke="#424242" stroke-width="0.5"/>
  
  <!-- Feet -->
  <rect x="46" y="115" width="14" height="4" rx="2" fill="#616161" stroke="#424242" stroke-width="0.5"/>
  <rect x="68" y="115" width="14" height="4" rx="2" fill="#616161" stroke="#424242" stroke-width="0.5"/>
  
  <!-- Hydraulic/Piston Details -->
  <line x1="46" y1="103" x2="41" y2="110" stroke="#9E9E9E" stroke-width="1.5" stroke-dasharray="1,0.5"/>
  <line x1="82" y1="103" x2="87" y2="110" stroke="#9E9E9E" stroke-width="1.5" stroke-dasharray="1,0.5"/>
  
  <!-- Sensors -->
  <circle cx="44" cy="35" r="2" fill="#B388FF" stroke="#7C4DFF" stroke-width="0.3">
    <animate attributeName="fill" values="#B388FF;#D1C4E9;#B388FF" dur="4s" repeatCount="indefinite"/>
  </circle>
  <circle cx="84" cy="35" r="2" fill="#B388FF" stroke="#7C4DFF" stroke-width="0.3">
    <animate attributeName="fill" values="#B388FF;#D1C4E9;#B388FF" dur="4s" repeatCount="indefinite"/>
  </circle>
  
  <!-- Circuit Traces -->
  <g stroke="#03A9F4" stroke-width="0.5" fill="none" opacity="0.5">
    <path d="M 54,44 C 54,46 48,48 44,50 C 40,52 35,55 35,60"/>
    <path d="M 74,44 C 74,46 80,48 84,50 C 88,52 93,55 93,60"/>
    <path d="M 64,51 C 64,53 64,55 64,60"/>
    <path d="M 53,95 C 53,90 56,85 60,85 C 64,85 68,85 C 72,85 C 76,85 79,90 75,95"/>
    <path d="M 64,75 C 64,78 64,80 64,85"/>
  </g>
  
  <!-- Gears -->
  <g transform="translate(35, 55)" opacity="0.8">
    <circle cx="0" cy="0" r="5" fill="none" stroke="#BDBDBD" stroke-width="0.8"/>
    <circle cx="0" cy="0" r="3" fill="none" stroke="#BDBDBD" stroke-width="0.5"/>
    <circle cx="0" cy="0" r="1" fill="#BDBDBD"/>
    <path d="M 0,-5 L 0,-7 M 3.5,-3.5 L 5,-5 M 5,0 L 7,0 M 3.5,3.5 L 5,5 M 0,5 L 0,7 M -3.5,3.5 L -5,5 M -5,0 L -7,0 M -3.5,-3.5 L -5,-5" 
          stroke="#BDBDBD" stroke-width="0.8"/>
  </g>
  <g transform="translate(93, 55)" opacity="0.8">
    <circle cx="0" cy="0" r="5" fill="none" stroke="#BDBDBD" stroke-width="0.8"/>
    <circle cx="0" cy="0" r="3" fill="none" stroke="#BDBDBD" stroke-width="0.5"/>
    <circle cx="0" cy="0" r="1" fill="#BDBDBD"/>
    <path d="M 0,-5 L 0,-7 M 3.5,-3.5 L 5,-5 M 5,0 L 7,0 M 3.5,3.5 L 5,5 M 0,5 L 0,7 M -3.5,3.5 L -5,5 M -5,0 L -7,0 M -3.5,-3.5 L -5,-5" 
          stroke="#BDBDBD" stroke-width="0.8"/>
  </g>
  
  <!-- Binary/Code Elements -->
  <g font-family="monospace" font-size="2.5" fill="#B3E5FC" opacity="0.8">
    <text x="30" y="25">10110</text>
    <text x="30" y="28">01001</text>
    <text x="88" y="25">10110</text>
    <text x="88" y="28">01001</text>
  </g>
  
  <!-- Bottom Label -->
  <text x="64" y="105" font-family="Arial" font-size="5" fill="#E0E0E0" text-anchor="middle">PWM</text>
  <text x="54" y="105" font-family="Arial" font-size="5" fill="#E0E0E0" text-anchor="middle">PID</text>
  <text x="74" y="105" font-family="Arial" font-size="5" fill="#E0E0E0" text-anchor="middle">I2C</text>
  
  <!-- Main Label -->
  <text x="64" y="124" font-family="Arial" font-size="6" font-weight="bold" fill="#E0E0E0" text-anchor="middle">ROBOTICS</text>
</svg> 