<svg xmlns="http://www.w3.org/2000/svg" viewBox="0 0 128 128">
   <path fill="#3D3D3D" d="M96.06,60.84a3.45,3.45,0,0,0-3.45,3.45A3.45,3.45,0,0,0,96.06,67.74h13.8v4.14h-13.8a7.59,7.59,0,1,1,0-15.18h17.25v4.14Zm-17.25-4.14a7.59,7.59,0,0,0,0,15.18h10.35V67.74H78.81a3.45,3.45,0,0,1,0-6.9h10.35V56.7Zm0,18.63h10.35v4.14H78.81a11.73,11.73,0,0,1,0-23.46h10.35v4.14H78.81a7.59,7.59,0,0,0,0,15.18Zm17.25-3.45h16.56v4.14H96.06a7.59,7.59,0,0,1,0-15.18h13.8V56.7H96.06a11.73,11.73,0,0,0,0,23.46h13.8V75.33Zm-45.11-6.9h6.9a3.45,3.45,0,0,1,0,6.9h-6.9V75.33h6.9a7.59,7.59,0,1,0,0-15.18h-6.9a3.45,3.45,0,0,1,0-6.9h6.9V49.11h-6.9a7.59,7.59,0,0,0,0,15.18Zm6.9,10.35a11.73,11.73,0,0,0,0-23.46h-6.9a7.59,7.59,0,0,1,0-15.18h6.9v4.14h-6.9a3.45,3.45,0,0,0,0,6.9h6.9a7.59,7.59,0,1,1,0,15.18h-6.9a3.45,3.45,0,0,0,0,6.9h6.9v4.14ZM44.85,56.7h6.9v4.14h-6.9a3.45,3.45,0,0,0,0,6.9h6.9v4.14h-6.9a7.59,7.59,0,0,1,0-15.18ZM23.46,78.78a11.73,11.73,0,0,1,0-23.46H35.19v4.14H23.46a7.59,7.59,0,0,0,0,15.18H35.19v4.14ZM13.11,75.33V49.11h4.14V75.33ZM37,49.11V75.33H32.83V49.11Z"/>
   <path fill="#E0121C" d="M67.6,23.33A23.89,23.89,0,0,0,43.71,47.22v2.07a23.89,23.89,0,0,0,47.78,0V47.22A23.89,23.89,0,0,0,67.6,23.33Zm0,4.14A19.75,19.75,0,0,1,87.35,47.22v2.07a19.75,19.75,0,0,1-39.5,0V47.22A19.75,19.75,0,0,1,67.6,27.47Z"/>
   <path fill="#3D3D3D" d="M23.46,99.41A10.75,10.75,0,1,0,12.71,88.66,10.76,10.76,0,0,0,23.46,99.41Zm0-4.14a6.62,6.62,0,1,1,6.62-6.61A6.63,6.63,0,0,1,23.46,95.27Z"/>
   <path fill="#3D3D3D" d="M110.69,99.41A10.75,10.75,0,1,0,99.94,88.66,10.76,10.76,0,0,0,110.69,99.41Zm0-4.14a6.62,6.62,0,1,1,6.62-6.61A6.63,6.63,0,0,1,110.69,95.27Z"/>
</svg> 