<svg xmlns="http://www.w3.org/2000/svg" viewBox="0 0 128 128">
  <defs>
    <linearGradient id="vis-odom-gradient" x1="0%" y1="0%" x2="100%" y2="100%">
      <stop offset="0%" stop-color="#FF5722"/>
      <stop offset="100%" stop-color="#BF360C"/>
    </linearGradient>
  </defs>

  <!-- Background circle -->
  <circle cx="64" cy="64" r="58" fill="url(#vis-odom-gradient)" stroke="#BF360C" stroke-width="2"/>

  <!-- Visual odometry visualization -->
  <g transform="translate(64, 64) scale(1.8)">
    <!-- Camera path trajectory -->
    <path d="M -25,-25 C -20,-15 -15,-5 -10,0 C -5,5 0,10 5,15 C 10,20 15,25 20,20 C 25,15 25,10 25,5" 
          fill="none" stroke="#FFFFFF" stroke-width="2" stroke-dasharray="4,1"/>
    
    <!-- Feature tracking points -->
    <g stroke="#FF8A65" stroke-width="0.5" fill="none">
      <!-- Camera pose 1 -->
      <g transform="translate(-25, -25)">
        <rect x="-5" y="-2" width="10" height="4" fill="#FF8A65" opacity="0.6"/>
        <polygon points="0,2 5,5 -5,5" fill="#FF8A65" opacity="0.6"/>
        <circle cx="0" cy="0" r="6" stroke-dasharray="1,1"/>
      </g>
      
      <!-- Camera pose 2 -->
      <g transform="translate(-10, 0)">
        <rect x="-5" y="-2" width="10" height="4" fill="#FF8A65" opacity="0.7"/>
        <polygon points="0,2 5,5 -5,5" fill="#FF8A65" opacity="0.7"/>
        <circle cx="0" cy="0" r="6" stroke-dasharray="1,1"/>
      </g>
      
      <!-- Camera pose 3 -->
      <g transform="translate(5, 15)">
        <rect x="-5" y="-2" width="10" height="4" fill="#FF8A65" opacity="0.8"/>
        <polygon points="0,2 5,5 -5,5" fill="#FF8A65" opacity="0.8"/>
        <circle cx="0" cy="0" r="6" stroke-dasharray="1,1"/>
      </g>
      
      <!-- Camera pose 4 -->
      <g transform="translate(25, 5) rotate(-45)">
        <rect x="-5" y="-2" width="10" height="4" fill="#FF8A65"/>
        <polygon points="0,2 5,5 -5,5" fill="#FF8A65"/>
        <circle cx="0" cy="0" r="6"/>
      </g>
    </g>
    
    <!-- Feature points -->
    <g fill="#FFFFFF">
      <circle cx="-15" cy="-10" r="1.5"/>
      <circle cx="-5" cy="-15" r="1.5"/>
      <circle cx="5" cy="-5" r="1.5"/>
      <circle cx="15" cy="-15" r="1.5"/>
      <circle cx="20" cy="0" r="1.5"/>
      <circle cx="10" cy="10" r="1.5"/>
      <circle cx="0" cy="20" r="1.5"/>
      <circle cx="-10" cy="15" r="1.5"/>
      <circle cx="-20" cy="5" r="1.5"/>
    </g>
    
    <!-- Feature tracking lines -->
    <g stroke="#FF8A65" stroke-width="0.5" stroke-dasharray="1,0.5" opacity="0.7">
      <line x1="-25" y1="-25" x2="-15" y2="-10"/>
      <line x1="-25" y1="-25" x2="-5" y2="-15"/>
      <line x1="-10" y1="0" x2="-15" y2="-10"/>
      <line x1="-10" y1="0" x2="-5" y2="-15"/>
      <line x1="-10" y1="0" x2="5" y2="-5"/>
      <line x1="5" y1="15" x2="5" y2="-5"/>
      <line x1="5" y1="15" x2="15" y2="-15"/>
      <line x1="5" y1="15" x2="10" y2="10"/>
      <line x1="25" y1="5" x2="15" y2="-15"/>
      <line x1="25" y1="5" x2="20" y2="0"/>
      <line x1="25" y1="5" x2="10" y2="10"/>
    </g>
    
    <!-- Coordinate frames -->
    <g stroke-width="1.5">
      <!-- Frame 1 -->
      <g transform="translate(-25, -25)">
        <line x1="0" y1="0" x2="3" y2="0" stroke="#FF0000"/>
        <line x1="0" y1="0" x2="0" y2="3" stroke="#00FF00"/>
        <line x1="0" y1="0" x2="1.5" y2="1.5" stroke="#0000FF"/>
      </g>
      
      <!-- Frame 2 -->
      <g transform="translate(-10, 0) rotate(30)">
        <line x1="0" y1="0" x2="3" y2="0" stroke="#FF0000"/>
        <line x1="0" y1="0" x2="0" y2="3" stroke="#00FF00"/>
        <line x1="0" y1="0" x2="1.5" y2="1.5" stroke="#0000FF"/>
      </g>
      
      <!-- Frame 3 -->
      <g transform="translate(5, 15) rotate(60)">
        <line x1="0" y1="0" x2="3" y2="0" stroke="#FF0000"/>
        <line x1="0" y1="0" x2="0" y2="3" stroke="#00FF00"/>
        <line x1="0" y1="0" x2="1.5" y2="1.5" stroke="#0000FF"/>
      </g>
      
      <!-- Frame 4 -->
      <g transform="translate(25, 5) rotate(-45)">
        <line x1="0" y1="0" x2="3" y2="0" stroke="#FF0000"/>
        <line x1="0" y1="0" x2="0" y2="3" stroke="#00FF00"/>
        <line x1="0" y1="0" x2="1.5" y2="1.5" stroke="#0000FF"/>
      </g>
    </g>
    
    <!-- Map reconstruction hint -->
    <g transform="translate(0, 0)" opacity="0.3">
      <path d="M -15,-10 L -5,-15 L 15,-15 L 20,0 L 10,10 L 0,20 L -10,15 L -20,5 Z" 
            fill="#FFCCBC" stroke="#FFFFFF" stroke-width="0.5"/>
    </g>
  </g>

  <!-- Label -->
  <g transform="translate(64, 115)">
    <rect x="-40" y="-10" width="80" height="20" rx="5" fill="#BF360C" stroke="#FFCCBC" stroke-width="1"/>
    <text x="0" y="0" font-family="Arial" font-size="10" fill="#FFFFFF" text-anchor="middle" font-weight="bold">VISUAL ODOMETRY</text>
    <text x="0" y="9" font-family="monospace" font-size="7" fill="#FFCCBC" text-anchor="middle">80%</text>
  </g>
</svg> 